<svg width="14" height="16" viewBox="0 0 14 16" fill="none" xmlns="http://www.w3.org/2000/svg">
<path d="M3.25 8H4.75V9.5H3.25V8Z" fill="white"/>
<path d="M3.25 11H4.75V12.5H3.25V11Z" fill="white"/>
<path d="M7.75 8H6.25V9.5H7.75V8Z" fill="white"/>
<path d="M6.25 11H7.75V12.5H6.25V11Z" fill="white"/>
<path d="M10.75 8H9.25V9.5H10.75V8Z" fill="white"/>
<path d="M9.25 11H10.75V12.5H9.25V11Z" fill="white"/>
<path fill-rule="evenodd" clip-rule="evenodd" d="M12.25 15.5H1.75C0.92275 15.5 0.25 14.8273 0.25 14V3.5C0.25 2.67275 0.92275 2 1.75 2H3.25V0.5H4.75V2H9.25V0.5H10.75V2H12.25C13.0773 2 13.75 2.67275 13.75 3.5V14C13.75 14.8273 13.0773 15.5 12.25 15.5ZM12.2501 5L12.25 3.5H1.75V5H12.2501ZM12.2502 6.5L12.2507 14H1.75V6.5H12.2502Z" fill="white"/>
</svg>
