<svg width="16" height="16" viewBox="0 0 16 16" fill="none" xmlns="http://www.w3.org/2000/svg">
<path d="M5.375 7.96231L9.08731 4.25L10.148 5.31066L7.49632 7.96231L10.148 10.614L9.08731 11.6746L5.375 7.96231Z" fill="white"/>
<path fill-rule="evenodd" clip-rule="evenodd" d="M15.5 8C15.5 12.1421 12.1421 15.5 8 15.5C3.85786 15.5 0.5 12.1421 0.5 8C0.5 3.85786 3.85787 0.5 8 0.5C12.1421 0.5 15.5 3.85787 15.5 8ZM14 8C14 11.3137 11.3137 14 8 14C4.68629 14 2 11.3137 2 8C2 4.68629 4.68629 2 8 2C11.3137 2 14 4.68629 14 8Z" fill="white"/>
</svg>
