<svg width="16" height="16" viewBox="0 0 16 16" fill="none" xmlns="http://www.w3.org/2000/svg">
<path fill-rule="evenodd" clip-rule="evenodd" d="M0.5 8C0.5 3.86 3.86 0.5 8 0.5C12.14 0.5 15.5 3.86 15.5 8C15.5 12.14 12.14 15.5 8 15.5C3.86 15.5 0.5 12.14 0.5 8ZM8.75 11V12.5H7.25V11H8.75ZM8 14C4.6925 14 2 11.3075 2 8C2 4.6925 4.6925 2 8 2C11.3075 2 14 4.6925 14 8C14 11.3075 11.3075 14 8 14ZM5 6.5C5 4.8425 6.3425 3.5 8 3.5C9.6575 3.5 11 4.8425 11 6.5C11 7.46219 10.4075 7.97999 9.83057 8.48415C9.28326 8.96245 8.75 9.42847 8.75 10.25H7.25C7.25 8.88404 7.95659 8.34244 8.57783 7.86626C9.06518 7.49271 9.5 7.15941 9.5 6.5C9.5 5.675 8.825 5 8 5C7.175 5 6.5 5.675 6.5 6.5H5Z" fill="white"/>
</svg>
