<svg width="14" height="18" viewBox="0 0 14 18" fill="none" xmlns="http://www.w3.org/2000/svg">
<path d="M5.25 0H8.44011C7.81662 0.689652 7.4375 1.60037 7.4375 2.59875C7.4375 4.75162 9.20038 6.49687 11.375 6.49687C11.6595 6.49687 11.937 6.467 12.2044 6.41024C12.2351 6.71994 12.25 7.0383 12.25 7.36312V12.1275L14 12.9937V14.7262H0V12.9937L1.75 12.1275V7.36312C1.75 4.69508 2.73875 2.47747 5.25 1.88842V0Z" fill="white"/>
<path d="M8.75 2.59875C8.75 2.36074 8.78232 2.1302 8.84285 1.91121C9.14734 0.809606 10.1657 0 11.375 0C12.8247 0 14 1.1635 14 2.59875C14 3.83135 13.1332 4.86352 11.9701 5.13042C11.7789 5.1743 11.5797 5.1975 11.375 5.1975C9.92525 5.1975 8.75 4.034 8.75 2.59875Z" fill="white"/>
<path d="M8.75 15.5925C8.75 16.5454 7.9625 17.325 7 17.325C6.02875 17.325 5.25 16.5454 5.25 15.5925H8.75Z" fill="white"/>
</svg>
